# xmcd
#
# Track frame offsets: 
#        150
#        26865
#        48845
#        74990
#        98120
#        123890
#        139965
#        166558
#        189714
#        207858
#        218433
#        248611
#        267546
#        287019
#        307994
#        320967
#        340528
#
# Disc length: 4773 seconds
#
# Revision: 0
# Processed by: cddbd v1.5.2PL0 Copyright (c) Steve Scherf et al.
# Submitted via: ExactAudioCopy v0.95a5
#
DISCID=0012a311
DTITLE=Various Artist - Blues Now Here  Box1  CD2
DYEAR=2007
DGENRE=Blues
TTITLE0=Crazy Horse - GEOFF ACHISON and The SOULDIGGERS
TTITLE1=Rule The World - DUKE ROBILLARD
TTITLE2=Two Jobs - CHRIS BELL and 100% BLUES
TTITLE3=Jake's Mojo - ROB ORLEMANS and HALF PAST MIDNIGHT
TTITLE4=Seven Desires - BRIAN STOLTZ
TTITLE5=She's About a Mover - MICHAEL POWERS
TTITLE6=Oh Lord - TOSCHO
TTITLE7=Picked To Click - AL BASILE
TTITLE8=House Of The Rising Sun - DANNY JOHNSON
TTITLE9=Get It Right - GEORGE TERRY
TTITLE10=Can't Get You Off Of My Mind - The BARRELHOUSE BROTHERS
TTITLE11=Officer - DELTA MOON
TTITLE12=The Lucky Devil - RICK VITO
TTITLE13=Run Your Finger Through My Hair - BLUES COMPANY
TTITLE14=Guitar Baby - HENRY COOPER
TTITLE15=What's Wrong - DUKE ROBILLARD
TTITLE16=Last Will And Testament - J.J.CALE and ERIC CLAPTON
EXTD=
EXTT0=
EXTT1=
EXTT2=
EXTT3=
EXTT4=
EXTT5=
EXTT6=
EXTT7=
EXTT8=
EXTT9=
EXTT10=
EXTT11=
EXTT12=
EXTT13=
EXTT14=
EXTT15=
EXTT16=
PLAYORDER=
